<svg xmlns="http://www.w3.org/2000/svg" height="18px" width="42px" viewBox="0 0 42 18"><g><path d="M16.853,6.345 C17.632,6.345 18.38,5.702 18.51,4.909 C18.664,4.138 18.135,3.494 17.357,3.494 C16.578,3.494 15.83,4.138 15.698,4.909 C15.546,5.702 16.053,6.345 16.853,6.345 Z M7.458,0 C2.5,0 0,3.522 0,6.459 C0,8.237 0.68,9.819 2.137,10.409 C2.376,10.505 2.59,10.412 2.66,10.15 C2.708,9.969 2.822,9.511 2.873,9.32 C2.943,9.061 2.916,8.97 2.723,8.744 C2.302,8.253 2.034,7.617 2.034,6.716 C2.034,4.104 4.007,1.765 7.172,1.765 C9.975,1.765 11.514,3.461 11.514,5.726 C11.514,8.708 10.183,11.18 8.206,11.18 C7.114,11.18 6.297,10.329 6.559,9.233 C6.872,7.922 7.48,6.509 7.48,5.564 C7.48,4.717 7.022,4.011 6.072,4.011 C4.956,4.011 4.06,5.155 4.06,6.687 C4.06,7.663 4.393,8.323 4.393,8.323 C4.393,8.323 3.251,13.117 3.051,13.957 C2.652,15.629 2.991,17.679 3.019,17.886 C3.036,18.009 3.195,18.038 3.267,17.946 C3.37,17.812 4.7,16.187 5.151,14.562 C5.279,14.102 5.885,11.72 5.885,11.72 C6.248,12.406 7.308,13.009 8.435,13.009 C11.79,13.009 14.066,9.979 14.066,5.923 C14.066,2.857 11.444,0 7.458,0 Z M26.896,14.189 C26.348,14.189 26.117,13.915 26.117,13.328 C26.117,12.404 27.035,10.091 27.035,9.041 C27.035,7.638 26.276,6.826 24.72,6.826 C23.739,6.826 22.722,7.453 22.291,8.003 C22.291,8.003 22.422,7.553 22.467,7.38 C22.515,7.196 22.415,6.884 22.173,6.884 L20.651,6.884 C20.328,6.884 20.238,7.055 20.191,7.244 C20.172,7.32 19.624,9.584 19.098,11.632 C18.738,13.034 17.863,14.205 16.928,14.205 C16.447,14.205 16.233,13.906 16.233,13.399 C16.233,12.959 16.519,11.877 16.86,10.534 C17.276,8.898 17.642,7.551 17.681,7.394 C17.732,7.192 17.642,7.017 17.379,7.017 L15.849,7.017 C15.572,7.017 15.473,7.161 15.414,7.361 C15.414,7.361 14.983,8.977 14.527,10.775 C14.196,12.079 13.83,13.409 13.83,14.034 C13.83,15.148 14.336,15.944 15.724,15.944 C16.796,15.944 17.644,15.45 18.292,14.764 C18.197,15.135 18.136,15.414 18.13,15.439 C18.074,15.65 18.142,15.838 18.394,15.838 L19.961,15.838 C20.233,15.838 20.337,15.73 20.394,15.494 C20.449,15.269 21.619,10.667 21.619,10.667 C21.928,9.443 22.692,8.632 23.768,8.632 C24.279,8.632 24.72,8.967 24.669,9.618 C24.612,10.333 23.741,12.903 23.741,14.031 C23.741,14.884 24.06,15.945 25.683,15.945 C26.789,15.945 27.603,15.464 28.195,14.786 L27.489,13.941 C27.311,14.094 27.114,14.189 26.896,14.189 Z M41.701,6.873 L40.134,6.873 C40.134,6.873 40.856,4.109 40.873,4.035 C40.942,3.745 40.698,3.578 40.441,3.631 C40.441,3.631 39.23,3.866 39.005,3.913 C38.779,3.958 38.604,4.081 38.522,4.403 C38.512,4.445 37.88,6.873 37.88,6.873 L36.622,6.873 C36.385,6.873 36.245,6.968 36.192,7.188 C36.115,7.504 35.975,8.145 35.936,8.297 C35.885,8.494 36,8.644 36.222,8.644 L37.457,8.644 C37.448,8.677 37.064,10.125 36.725,11.521 L36.724,11.516 C36.72,11.532 36.716,11.546 36.712,11.562 L36.712,11.556 C36.712,11.556 36.708,11.571 36.702,11.598 C36.324,12.968 35.118,14.209 34.201,14.209 C33.721,14.209 33.506,13.909 33.506,13.402 C33.506,12.963 33.792,11.88 34.134,10.537 C34.549,8.901 34.915,7.555 34.955,7.397 C35.006,7.196 34.915,7.02 34.652,7.02 L33.122,7.02 C32.845,7.02 32.746,7.164 32.687,7.364 C32.687,7.364 32.257,8.98 31.8,10.778 C31.469,12.083 31.103,13.412 31.103,14.037 C31.103,15.151 31.609,15.948 32.997,15.948 C34.07,15.948 35.136,15.453 35.783,14.767 C35.783,14.767 36.011,14.521 36.23,14.229 C36.241,14.581 36.324,14.837 36.411,15.018 C36.458,15.119 36.515,15.215 36.581,15.303 C36.582,15.304 36.583,15.306 36.585,15.308 L36.585,15.308 C36.891,15.713 37.398,15.962 38.151,15.962 C39.894,15.962 40.944,14.938 41.562,13.909 L40.704,13.239 C40.333,13.774 39.839,14.175 39.324,14.175 C38.846,14.175 38.579,13.878 38.579,13.372 C38.579,12.935 38.889,11.868 39.229,10.53 C39.344,10.083 39.516,9.401 39.708,8.644 L41.302,8.644 C41.539,8.644 41.678,8.549 41.732,8.329 C41.808,8.012 41.948,7.372 41.988,7.221 C42.039,7.023 41.923,6.873 41.701,6.873 Z M34.126,6.348 C34.905,6.348 35.653,5.706 35.783,4.912 C35.937,4.141 35.409,3.498 34.63,3.498 C33.851,3.498 33.103,4.141 32.971,4.912 C32.819,5.706 33.326,6.348 34.126,6.348 Z" fill="#e60023"></path></g></svg>